<svg xmlns="http://www.w3.org/2000/svg" height="24" width="24">
  <defs>
    <linearGradient gradientTransform="matrix(0.011566162109375 0 0 0.011566162109375 12 5.7)" gradientUnits="userSpaceOnUse" id="gradient0" spreadMethod="pad" x1="-819.2" x2="819.2">
      <stop offset="0" stop-color="#FFFFFF" />
      <stop offset="0.9921568627450981" stop-color="#B4ECF7" />
    </linearGradient>
    <linearGradient gradientTransform="matrix(0.011016845703125 0 0 0.011016845703125 12.85 0.75)" gradientUnits="userSpaceOnUse" id="gradient1" spreadMethod="pad" x1="-819.2" x2="819.2">
      <stop offset="0" stop-color="#FFFFFF" />
      <stop offset="0.9921568627450981" stop-color="#B4ECF7" />
    </linearGradient>
    <linearGradient gradientTransform="matrix(0.0120697021484375 0 0 0.0120697021484375 11.85 7.8)" gradientUnits="userSpaceOnUse" id="gradient2" spreadMethod="pad" x1="-819.2" x2="819.2">
      <stop offset="0" stop-color="#FFFFFF" />
      <stop offset="0.9921568627450981" stop-color="#B4ECF7" />
    </linearGradient>
  </defs>
  <g>
    <path d="M3.2 14.15 Q3.1 14.05 2.95 13.85 2.8 13.7 2.65 13.5 2.5 13.3 2.4 13.15 L2.25 12.95 Q2.1 12.8 2 12.65 1.95 12.5 2 12.35 2.05 12.2 2.25 12.1 2.55 11.85 2.9 11.6 3.2 11.4 3.55 11.15 3.6 11.1 3.7 11.05 3.8 10.95 3.9 10.9 4 10.85 4.05 10.8 L4.1 10.8 Q4.1 10.8 4.15 10.8 4.15 10.8 4.1 10.75 4.1 10.75 4.1 10.75 L4.1 10.7 Q4 10.55 3.85 10.25 3.7 10 3.55 9.75 3.4 9.45 3.3 9.25 L3.15 9 Q3.05 8.9 3.05 8.75 3.05 8.65 3.1 8.5 3.15 8.4 3.3 8.3 3.3 8.25 3.35 8.25 3.35 8.2 3.35 8.15 3.4 8.15 3.4 8.1 3.45 8 3.5 8 3.55 7.95 3.6 7.95 3.65 7.9 3.75 7.9 3.75 7.85 3.8 7.8 3.9 7.8 3.95 7.7 4 7.65 4.05 7.6 4.1 7.55 4.15 7.55 4.4 7.25 4.7 7 4.95 6.8 5.25 6.55 5.5 6.3 5.8 6.05 6.15 5.65 6.6 5.3 7 4.95 7.4 4.55 7.8 4.2 8.2 3.85 8.5 3.55 8.8 3.25 9.15 2.95 9.45 2.65 9.8 2.4 10.1 2.1 10.15 2 10.2 1.95 10.25 1.9 10.35 1.85 10.4 1.75 10.45 1.75 10.5 1.75 10.55 1.7 10.6 1.7 10.65 1.7 10.7 1.65 10.75 1.65 10.8 1.65 10.8 1.65 10.85 1.65 10.85 1.65 11 1.65 11.1 1.7 11.15 1.8 11.25 1.9 11.3 2 11.4 2.1 12.05 2.95 12.85 3.7 13.65 4.5 14.55 5.15 15.5 5.8 16.45 6.35 17.4 6.95 18.4 7.4 18.85 7.6 19.3 7.85 19.75 8.05 20.25 8.25 20.55 8.4 20.85 8.5 21.2 8.65 21.5 8.75 21.8 8.85 22.1 9 22.3 9.1 22.4 9.25 22.45 9.4 22.45 9.55 22.4 9.7 22.25 9.85 22.25 9.9 22.2 9.9 22.2 9.9 22.2 9.9 22.15 9.95 22.15 9.95 L22.05 10.2 Q21.9 10.4 21.7 10.7 21.5 10.95 21.3 11.2 21.1 11.45 20.95 11.6 L20.95 11.65 Q20.95 11.65 20.9 11.65 20.9 11.7 20.9 11.7 20.9 11.7 20.95 11.75 L21.25 11.95 Q21.45 12.1 21.7 12.25 21.9 12.45 22.05 12.6 22.2 12.8 22.1 12.9 22 13.05 21.85 13.2 21.75 13.35 21.6 13.5 21.45 13.65 21.35 13.8 L21.3 13.8 Q21.3 13.8 21.3 13.85 21.3 13.85 21.3 13.85 21.3 13.85 21.3 13.9 21.4 13.95 21.45 13.95 21.55 14 21.6 14.05 21.7 14.1 21.85 14.2 22 14.25 22.15 14.35 22.3 14.45 22.35 14.55 22.4 14.7 22.4 14.85 22.35 14.95 22.35 14.95 22.35 15 22.3 15.05 22.25 15.1 22.25 15.15 22.05 15.5 21.85 15.8 21.65 16.15 21.45 16.5 20.95 17.3 20.35 18.05 19.75 18.85 19.05 19.55 18.55 20.05 18 20.55 17.45 21.05 16.9 21.45 16.85 21.5 16.8 21.55 16.7 21.55 16.65 21.6 16.6 21.65 16.6 21.65 16.5 21.75 16.35 21.8 16.25 21.85 16.1 21.8 15.5 21.7 14.9 21.6 14.3 21.45 13.7 21.35 13.05 21.2 12.45 21.05 11.8 20.9 11.2 20.7 10.55 20.55 9.95 20.35 9.65 20.3 9.4 20.2 9.15 20.1 8.85 20.05 8.6 19.95 8.3 19.85 8 19.75 7.65 19.6 7.3 19.5 7 19.35 6.65 19.25 6.35 19.1 5.95 18.95 5.6 18.8 5.2 18.65 4.85 18.5 4.3 18.25 3.8 17.95 3.25 17.7 2.75 17.35 2.2 17.05 1.75 16.65 1.6 16.55 1.5 16.4 1.4 16.25 1.45 16.1 1.45 15.95 1.6 15.8 2 15.4 2.35 15.05 2.75 14.65 3.1 14.3 3.15 14.3 3.15 14.25 3.2 14.25 3.2 14.2 3.2 14.2 3.2 14.15 M4.65 11.6 Q4.65 11.65 4.6 11.65 4.6 11.65 4.6 11.65 L4.6 11.7 Q4.5 11.75 4.4 11.85 4.3 11.9 4.2 12 4.05 12.05 4 12.1 3.8 12.25 3.65 12.35 3.45 12.45 3.3 12.6 3.25 12.6 3.25 12.65 3.25 12.65 3.3 12.65 3.3 12.7 3.3 12.7 3.65 13.2 4.1 13.65 4.5 14.05 5 14.45 5.5 14.85 6 15.15 6.55 15.5 7.05 15.8 7.7 16.15 8.4 16.5 9.1 16.8 9.8 17.1 10.55 17.4 11.25 17.65 12.25 18 13.3 18.3 14.35 18.55 15.4 18.8 L15.5 18.85 Q15.55 18.85 15.65 18.85 15.7 18.9 15.8 18.9 L15.85 18.9 15.9 18.85 Q15.95 18.85 16 18.8 16 18.7 16.05 18.7 L16.1 18.6 Q16.75 17.8 17.45 16.95 18.1 16.15 18.75 15.35 19.45 14.5 20.1 13.7 20.25 13.5 20.4 13.3 20.55 13.1 20.7 12.9 L20.75 12.9 Q20.75 12.9 20.75 12.85 20.75 12.85 20.7 12.85 20.65 12.8 20.55 12.7 20.5 12.65 20.4 12.6 20.35 12.55 20.25 12.5 20.25 12.5 20.25 12.5 20.25 12.5 20.2 12.5 20.2 12.55 20.2 12.55 L20.15 12.55 Q19.95 12.85 19.65 13.2 19.4 13.5 19.15 13.8 18.4 14.7 17.65 15.6 16.9 16.5 16.15 17.4 16.15 17.45 16.1 17.45 16.1 17.5 16.1 17.5 16.05 17.55 16.05 17.6 16 17.8 15.85 17.9 15.75 17.95 15.55 17.95 15.4 17.95 15.25 17.9 15.15 17.85 15 17.8 14.9 17.8 14.8 17.75 14.7 17.7 14.6 17.7 14.35 17.6 14.15 17.55 13.9 17.45 13.7 17.4 13.45 17.35 13.25 17.25 12.15 16.85 11.1 16.4 10 15.95 9 15.4 8 14.85 7.1 14.15 6.65 13.8 6.2 13.4 5.75 13 5.4 12.55 5 12.15 4.65 11.65 4.65 11.65 4.65 11.6 M10.7 2.9 Q10.7 2.9 10.7 2.9 10.7 2.95 10.65 2.95 10.2 3.35 9.75 3.75 9.3 4.15 8.9 4.6 8.45 5 8 5.4 7.7 5.7 7.4 5.95 7.05 6.25 6.75 6.55 6.2 7.05 5.65 7.55 5.1 8.05 4.55 8.55 4.45 8.6 4.45 8.65 4.4 8.65 4.45 8.7 4.45 8.75 4.45 8.8 4.7 9.65 5.05 10.35 5.45 11.05 5.95 11.65 6.5 12.3 7.15 12.85 7.65 13.3 8.2 13.7 8.75 14.05 9.3 14.4 9.9 14.7 10.5 15 10.8 15.15 11.1 15.3 11.4 15.45 11.7 15.55 12.2 15.75 12.7 15.95 13.2 16.15 13.75 16.35 14.1 16.45 14.5 16.6 14.85 16.7 15.25 16.8 15.3 16.85 15.3 16.8 15.3 16.8 15.35 16.8 15.35 16.75 15.4 16.7 15.75 16.3 16.1 15.85 16.45 15.4 16.85 14.95 17.2 14.55 17.55 14.1 17.75 13.85 17.95 13.65 18.15 13.4 18.3 13.2 18.5 12.95 18.7 12.75 19 12.4 19.3 12.05 19.55 11.7 19.85 11.35 20.15 10.95 20.5 10.55 20.8 10.2 21.15 9.8 L21.15 9.75 Q21.15 9.75 21.2 9.75 21.15 9.75 21.15 9.7 21.15 9.7 21.1 9.7 20.55 9.5 20 9.25 19.45 9.05 18.95 8.8 18 8.35 17.05 7.9 16.15 7.4 15.25 6.85 14.35 6.3 13.55 5.65 12.95 5.2 12.35 4.65 11.8 4.15 11.3 3.6 11.15 3.4 11 3.25 10.85 3.1 10.75 2.95 L10.75 2.9 Q10.75 2.9 10.7 2.9 M20.6 14.7 Q20.6 14.7 20.6 14.7 20.6 14.7 20.55 14.75 20.15 15.3 19.7 15.8 19.25 16.35 18.85 16.85 18.3 17.55 17.75 18.2 17.2 18.85 16.7 19.55 16.65 19.55 16.65 19.6 16.6 19.65 16.6 19.7 16.6 19.75 16.55 19.8 16.45 19.95 16.35 20 16.25 20 16.1 20 16 20 15.9 20 15.75 19.95 15.65 19.9 14.8 19.75 13.95 19.5 13.05 19.3 12.25 19.05 11.15 18.7 10.05 18.3 8.95 17.9 7.9 17.4 6.85 16.9 5.9 16.3 5.4 16 4.9 15.65 4.45 15.35 4 14.95 4 14.95 3.95 14.9 3.95 14.95 3.95 14.95 3.9 14.95 3.9 14.95 L3.9 15 Q3.6 15.25 3.35 15.55 3.05 15.8 2.8 16.1 L2.75 16.1 Q2.75 16.15 2.75 16.15 2.8 16.15 2.8 16.15 L2.8 16.2 Q3.3 16.55 3.85 16.85 4.4 17.15 4.95 17.4 5.5 17.65 6.05 17.9 7.55 18.5 9.05 19 10.5 19.5 12.05 19.9 13.55 20.25 15.1 20.6 15.25 20.6 15.4 20.65 15.6 20.7 15.75 20.7 15.9 20.75 16.05 20.75 16.1 20.75 16.15 20.75 16.15 20.75 16.2 20.7 16.25 20.65 16.25 20.65 16.75 20.3 17.2 19.9 17.65 19.5 18.1 19.1 18.7 18.45 19.25 17.8 19.75 17.15 20.25 16.45 20.7 15.75 21.15 15 21.15 15 21.15 15 21.15 15 21.15 14.95 21.15 14.95 21.15 14.95 L21.1 14.95 Q21 14.9 20.9 14.8 20.75 14.75 20.65 14.7 20.6 14.7 20.6 14.7" fill="#669CA8" stroke="none" />
    <path d="M4.65 11.6 Q4.65 11.65 4.65 11.65 5 12.15 5.4 12.55 5.75 13 6.2 13.4 6.65 13.8 7.1 14.15 8 14.85 9 15.4 10 15.95 11.1 16.4 12.15 16.85 13.25 17.25 13.45 17.35 13.7 17.4 13.9 17.45 14.15 17.55 14.35 17.6 14.6 17.7 14.7 17.7 14.8 17.75 14.9 17.8 15 17.8 15.15 17.85 15.25 17.9 15.4 17.95 15.55 17.95 15.75 17.95 15.85 17.9 16 17.8 16.05 17.6 16.05 17.55 16.1 17.5 16.1 17.5 16.1 17.45 16.15 17.45 16.15 17.4 16.9 16.5 17.65 15.6 18.4 14.7 19.15 13.8 19.4 13.5 19.65 13.2 19.95 12.85 20.15 12.55 L20.2 12.55 Q20.2 12.55 20.2 12.5 20.25 12.5 20.25 12.5 20.25 12.5 20.25 12.5 20.35 12.55 20.4 12.6 20.5 12.65 20.55 12.7 20.65 12.8 20.7 12.85 20.75 12.85 20.75 12.85 20.75 12.9 20.75 12.9 L20.7 12.9 Q20.55 13.1 20.4 13.3 20.25 13.5 20.1 13.7 19.45 14.5 18.75 15.35 18.1 16.15 17.45 16.95 16.75 17.8 16.1 18.6 L16.05 18.7 Q16 18.7 16 18.8 15.95 18.85 15.9 18.85 L15.85 18.9 15.8 18.9 Q15.7 18.9 15.65 18.85 15.55 18.85 15.5 18.85 L15.4 18.8 Q14.35 18.55 13.3 18.3 12.25 18 11.25 17.65 10.55 17.4 9.8 17.1 9.1 16.8 8.4 16.5 7.7 16.15 7.05 15.8 6.55 15.5 6 15.15 5.5 14.85 5 14.45 4.5 14.05 4.1 13.65 3.65 13.2 3.3 12.7 3.3 12.7 3.3 12.65 3.25 12.65 3.25 12.65 3.25 12.6 3.3 12.6 3.45 12.45 3.65 12.35 3.8 12.25 4 12.1 4.05 12.05 4.2 12 4.3 11.9 4.4 11.85 4.5 11.75 4.6 11.7 L4.6 11.65 Q4.6 11.65 4.6 11.65 4.65 11.65 4.65 11.6" fill="url(#gradient0)" stroke="none" />
    <path d="M8.5 8.05 Q8.5 8.1 8.5 8.1 8.4 8.1 8.3 8.15 8.25 8.25 8.15 8.3 8.1 8.35 8 8.45 7.75 8.7 7.45 8.95 7.2 9.25 6.9 9.55 6.9 9.55 6.85 9.65 6.8 9.7 6.75 9.75 6.7 9.8 6.65 9.85 6.65 9.9 6.65 9.95 6.7 10.05 6.75 10.1 6.75 10.15 6.8 10.2 6.9 10.35 7.05 10.4 7.15 10.5 7.3 10.6 7.5 10.65 7.6 10.75 7.85 10.85 8.1 10.95 8.3 11.05 8.55 11.15 8.8 11.25 9.1 11.35 9.4 11.45 9.7 11.5 9.85 11.55 10.05 11.6 10.25 11.6 10.45 11.6 10.7 11.6 10.85 11.55 11.05 11.5 11.2 11.4 11.25 11.4 11.3 11.35 11.3 11.3 11.35 11.3 11.35 11.25 11.35 11.2 11.35 11.05 11.35 10.95 11.3 10.8 11.3 10.65 11.25 10.55 11.2 10.4 11.15 10.15 11.1 9.9 11 9.7 10.95 9.45 10.9 9.35 10.9 9.3 10.85 9.25 10.85 9.15 10.85 9.15 10.85 9.15 10.8 9.15 10.8 9.15 10.5 9.05 10.2 8.9 9.9 8.75 9.6 8.6 9.3 8.45 9.05 8.3 8.95 8.25 8.8 8.2 8.7 8.15 8.6 8.1 8.6 8.1 8.55 8.1 8.55 8.05 8.55 8.05 L8.5 8.05 M7.15 7.85 L7.4 7.6 7.85 7.2 Q8.4 6.65 9.05 6.1 9.7 5.5 10.25 5.1 L10.65 4.8 10.85 4.75 10.9 4.75 Q10.9 4.75 10.9 4.75 10.9 4.75 10.9 4.75 10.95 4.65 11 4.6 11.1 4.55 11.15 4.55 11.2 4.5 11.3 4.5 L11.35 4.5 Q11.35 4.5 11.35 4.5 11.4 4.5 11.5 4.5 11.55 4.55 11.6 4.55 11.85 4.7 12.1 4.9 12.35 5.05 12.55 5.2 12.75 5.35 12.95 5.55 13.15 5.7 13.3 5.85 13.5 6.05 13.7 6.3 13.9 6.55 14 6.85 14.1 7.1 14.1 7.4 14.15 7.65 14 7.95 13.9 8.25 13.7 8.45 13.5 8.6 13.25 8.75 13 8.85 12.7 8.95 12.55 9.05 12.35 9.1 12.15 9.15 11.95 9.15 L11.95 9.2 Q11.95 9.2 11.9 9.2 11.9 9.2 11.95 9.2 11.95 9.25 11.95 9.25 11.95 9.3 11.95 9.35 12.05 9.6 12.1 9.8 12.2 10.05 12.25 10.3 12.3 10.45 12.3 10.6 12.35 10.75 12.35 10.95 12.4 11.1 12.4 11.25 12.35 11.45 12.3 11.6 12.25 11.8 12.1 11.95 11.9 12.25 11.6 12.4 11.3 12.55 10.95 12.6 10.6 12.65 10.25 12.65 10.1 12.65 9.95 12.6 9.8 12.6 9.7 12.55 9.4 12.5 9.1 12.45 8.85 12.35 8.6 12.25 8.1 12.05 7.6 11.85 7.1 11.65 6.65 11.4 6.55 11.35 6.5 11.3 6.4 11.25 6.35 11.2 6.15 11.05 6.05 10.9 5.9 10.75 5.8 10.6 5.75 10.4 5.7 10.2 5.6 10 5.65 9.75 5.65 9.55 5.75 9.4 5.85 9.2 6 9 6.25 8.7 6.55 8.45 6.85 8.15 7.15 7.85 M11 5.4 Q11 5.4 10.95 5.4 10.9 5.5 10.8 5.6 10.7 5.7 10.6 5.8 10.45 5.95 10.3 6.1 10.15 6.25 10 6.4 9.85 6.55 9.65 6.75 9.5 6.9 9.35 7.05 9.3 7.1 9.25 7.15 9.2 7.15 9.15 7.2 9.15 7.2 9.15 7.2 L9.15 7.25 Q9.35 7.35 9.55 7.45 9.75 7.55 9.95 7.65 10.2 7.75 10.45 7.9 10.65 8 10.9 8.1 11 8.1 11.05 8.15 11.15 8.2 11.25 8.2 11.3 8.2 11.4 8.2 11.6 8.2 11.85 8.15 12.05 8.1 12.3 8.05 12.5 7.95 12.7 7.85 12.75 7.85 12.85 7.8 12.9 7.75 12.95 7.7 13 7.65 13.05 7.6 13.1 7.5 13.1 7.4 13.05 7.25 13 7.15 12.95 7 12.85 6.9 12.8 6.8 12.7 6.75 12.5 6.5 12.25 6.3 12.05 6.1 11.8 5.9 11.55 5.75 11.25 5.55 11.2 5.5 11.15 5.5 11.05 5.45 11 5.4 11 5.4 11 5.4 M16.45 9.6 Q16.2 9.75 15.95 9.9 15.7 10.05 15.45 10.25 15.4 10.35 15.35 10.4 15.25 10.5 15.2 10.55 15.25 10.55 15.25 10.6 15.3 10.6 15.35 10.6 15.45 10.65 15.55 10.75 15.65 10.8 15.75 10.85 15.85 10.95 16 11 16.1 11.1 16.25 11.15 16.3 11.2 16.4 11.25 16.45 11.3 16.55 11.35 16.55 11.35 16.55 11.35 16.55 11.35 16.6 11.35 16.6 11.25 16.65 11.2 16.7 11.1 16.7 11 16.75 10.8 16.8 10.65 16.8 10.45 16.85 10.3 16.85 10.1 16.85 9.95 16.85 9.95 16.85 9.9 16.85 9.9 16.85 9.9 16.8 9.85 16.75 9.85 16.7 9.8 16.6 9.75 16.55 9.75 16.55 9.7 16.5 9.65 16.45 9.6 M16.9 8.8 Q16.95 8.8 17 8.85 17.05 8.85 17.1 8.85 17.2 8.9 17.25 8.95 17.35 9 17.4 9.05 17.45 9.05 17.55 9.1 17.6 9.15 17.65 9.2 17.75 9.25 17.8 9.3 17.85 9.4 17.85 9.5 17.85 9.6 17.85 9.7 17.85 9.75 17.9 9.85 17.9 9.9 17.9 9.95 17.9 10.1 17.85 10.25 17.85 10.35 17.85 10.5 17.8 10.7 17.75 10.9 17.7 11.15 17.65 11.35 17.55 11.7 17.45 12 17.3 12.3 17.15 12.6 17 12.9 16.85 13.15 16.75 13.25 16.7 13.4 16.65 13.5 16.55 13.6 16.55 13.7 16.5 13.75 16.45 13.85 16.45 13.9 16.35 14.05 16.25 14.15 16.15 14.2 16.05 14.25 16 14.25 15.9 14.25 15.8 14.2 15.75 14.2 15.65 14.15 15.6 14.1 15.55 14.05 15.5 13.95 15.45 13.85 15.45 13.75 15.45 13.65 15.5 13.5 15.55 13.35 15.65 13.15 15.75 12.95 15.85 12.8 15.9 12.7 15.95 12.65 16 12.55 16.05 12.45 16.05 12.4 16.1 12.35 16.1 12.35 16.15 12.3 16.1 12.25 16.05 12.25 16.05 12.2 16 12.2 15.85 12.1 15.75 12.05 15.6 11.95 15.45 11.9 15.4 11.85 15.3 11.8 15.25 11.75 15.2 11.7 15.1 11.65 15 11.6 14.95 11.55 14.85 11.5 14.8 11.5 14.75 11.45 14.7 11.4 14.65 11.35 14.65 11.4 14.65 11.4 14.6 11.45 14.6 11.45 14.45 11.7 14.3 11.9 14.1 12.15 13.95 12.4 13.9 12.45 13.8 12.5 13.75 12.6 13.7 12.65 13.55 12.75 13.45 12.75 13.3 12.75 13.2 12.65 13.05 12.6 13 12.5 12.9 12.4 12.9 12.3 12.9 12.2 12.9 12.05 12.95 11.95 13.05 11.9 13.15 11.7 13.3 11.55 13.4 11.4 13.5 11.2 13.65 11 13.8 10.8 13.95 10.55 14.1 10.35 14.15 10.25 14.2 10.2 14.25 10.1 14.35 10 14.5 9.8 14.7 9.6 14.9 9.4 15.1 9.2 15.35 9 15.6 8.9 15.9 8.75 16.15 8.65 16.25 8.6 16.3 8.6 16.35 8.55 16.45 8.55 16.45 8.55 16.45 8.55 L16.5 8.55 Q16.5 8.55 16.5 8.55 16.55 8.55 16.55 8.55 16.65 8.6 16.75 8.65 16.85 8.7 16.9 8.8" fill="#444444" stroke="none" />
    <path d="M16.9 8.8 Q16.85 8.7 16.75 8.65 16.65 8.6 16.55 8.55 16.55 8.55 16.5 8.55 16.5 8.55 16.5 8.55 L16.45 8.55 Q16.45 8.55 16.45 8.55 16.35 8.55 16.3 8.6 16.25 8.6 16.15 8.65 15.9 8.75 15.6 8.9 15.35 9 15.1 9.2 14.9 9.4 14.7 9.6 14.5 9.8 14.35 10 14.25 10.1 14.2 10.2 14.15 10.25 14.1 10.35 13.95 10.55 13.8 10.8 13.65 11 13.5 11.2 13.4 11.4 13.3 11.55 13.15 11.7 13.05 11.9 12.95 11.95 12.9 12.05 12.9 12.2 12.9 12.3 12.9 12.4 13 12.5 13.05 12.6 13.2 12.65 13.3 12.75 13.45 12.75 13.55 12.75 13.7 12.65 13.75 12.6 13.8 12.5 13.9 12.45 13.95 12.4 14.1 12.15 14.3 11.9 14.45 11.7 14.6 11.45 14.6 11.45 14.65 11.4 14.65 11.4 14.65 11.35 14.7 11.4 14.75 11.45 14.8 11.5 14.85 11.5 14.95 11.55 15 11.6 15.1 11.65 15.2 11.7 15.25 11.75 15.3 11.8 15.4 11.85 15.45 11.9 15.6 11.95 15.75 12.05 15.85 12.1 16 12.2 16.05 12.2 16.05 12.25 16.1 12.25 16.15 12.3 16.1 12.35 16.1 12.35 16.05 12.4 16.05 12.45 16 12.55 15.95 12.65 15.9 12.7 15.85 12.8 15.75 12.95 15.65 13.15 15.55 13.35 15.5 13.5 15.45 13.65 15.45 13.75 15.45 13.85 15.5 13.95 15.55 14.05 15.6 14.1 15.65 14.15 15.75 14.2 15.8 14.2 15.9 14.25 16 14.25 16.05 14.25 16.15 14.2 16.25 14.15 16.35 14.05 16.45 13.9 16.45 13.85 16.5 13.75 16.55 13.7 16.55 13.6 16.65 13.5 16.7 13.4 16.75 13.25 16.85 13.15 17 12.9 17.15 12.6 17.3 12.3 17.45 12 17.55 11.7 17.65 11.35 17.7 11.15 17.75 10.9 17.8 10.7 17.85 10.5 17.85 10.35 17.85 10.25 17.9 10.1 17.9 9.95 17.9 9.9 17.9 9.85 17.85 9.75 17.85 9.7 17.85 9.6 17.85 9.5 17.85 9.4 17.8 9.3 17.75 9.25 17.65 9.2 17.6 9.15 17.55 9.1 17.45 9.05 17.4 9.05 17.35 9 17.25 8.95 17.2 8.9 17.1 8.85 17.05 8.85 17 8.85 16.95 8.8 16.9 8.8 M8.5 8.05 L8.55 8.05 Q8.55 8.05 8.55 8.1 8.6 8.1 8.6 8.1 8.7 8.15 8.8 8.2 8.95 8.25 9.05 8.3 9.3 8.45 9.6 8.6 9.9 8.75 10.2 8.9 10.5 9.05 10.8 9.15 10.8 9.15 10.85 9.15 10.85 9.15 10.85 9.15 10.85 9.25 10.9 9.3 10.9 9.35 10.95 9.45 11 9.7 11.1 9.9 11.15 10.15 11.2 10.4 11.25 10.55 11.3 10.65 11.3 10.8 11.35 10.95 11.35 11.05 11.35 11.2 11.35 11.25 11.35 11.3 11.3 11.3 11.3 11.35 11.25 11.4 11.2 11.4 11.05 11.5 10.85 11.55 10.7 11.6 10.45 11.6 10.25 11.6 10.05 11.6 9.85 11.55 9.7 11.5 9.4 11.45 9.1 11.35 8.8 11.25 8.55 11.15 8.3 11.05 8.1 10.95 7.85 10.85 7.6 10.75 7.5 10.65 7.3 10.6 7.15 10.5 7.05 10.4 6.9 10.35 6.8 10.2 6.75 10.15 6.75 10.1 6.7 10.05 6.65 9.95 6.65 9.9 6.65 9.85 6.7 9.8 6.75 9.75 6.8 9.7 6.85 9.65 6.9 9.55 6.9 9.55 7.2 9.25 7.45 8.95 7.75 8.7 8 8.45 8.1 8.35 8.15 8.3 8.25 8.25 8.3 8.15 8.4 8.1 8.5 8.1 8.5 8.1 8.5 8.05 M7.15 7.85 Q6.85 8.15 6.55 8.45 6.25 8.7 6 9 5.85 9.2 5.75 9.4 5.65 9.55 5.65 9.75 5.6 10 5.7 10.2 5.75 10.4 5.8 10.6 5.9 10.75 6.05 10.9 6.15 11.05 6.35 11.2 6.4 11.25 6.5 11.3 6.55 11.35 6.65 11.4 7.1 11.65 7.6 11.85 8.1 12.05 8.6 12.25 8.85 12.35 9.1 12.45 9.4 12.5 9.7 12.55 9.8 12.6 9.95 12.6 10.1 12.65 10.25 12.65 10.6 12.65 10.95 12.6 11.3 12.55 11.6 12.4 11.9 12.25 12.1 11.95 12.25 11.8 12.3 11.6 12.35 11.45 12.4 11.25 12.4 11.1 12.35 10.95 12.35 10.75 12.3 10.6 12.3 10.45 12.25 10.3 12.2 10.05 12.1 9.8 12.05 9.6 11.95 9.35 11.95 9.3 11.95 9.25 11.95 9.25 11.95 9.2 11.9 9.2 11.9 9.2 11.95 9.2 11.95 9.2 L11.95 9.15 Q12.15 9.15 12.35 9.1 12.55 9.05 12.7 8.95 13 8.85 13.25 8.75 13.5 8.6 13.7 8.45 13.9 8.25 14 7.95 14.15 7.65 14.1 7.4 14.1 7.1 14 6.85 13.9 6.55 13.7 6.3 13.5 6.05 13.3 5.85 13.15 5.7 12.95 5.55 12.75 5.35 12.55 5.2 12.35 5.05 12.1 4.9 11.85 4.7 11.6 4.55 11.55 4.55 11.5 4.5 11.4 4.5 11.35 4.5 11.35 4.5 11.35 4.5 L11.3 4.5 Q11.2 4.5 11.15 4.55 11.1 4.55 11 4.6 10.95 4.65 10.9 4.75 10.9 4.75 10.9 4.75 10.9 4.75 10.9 4.75 L10.85 4.75 10.65 4.8 10.25 5.1 Q9.7 5.5 9.05 6.1 8.4 6.65 7.85 7.2 L7.4 7.6 7.15 7.85 M11 5.4 Q11 5.4 11 5.4 11.05 5.45 11.15 5.5 11.2 5.5 11.25 5.55 11.55 5.75 11.8 5.9 12.05 6.1 12.25 6.3 12.5 6.5 12.7 6.75 12.8 6.8 12.85 6.9 12.95 7 13 7.15 13.05 7.25 13.1 7.4 13.1 7.5 13.05 7.6 13 7.65 12.95 7.7 12.9 7.75 12.85 7.8 12.75 7.85 12.7 7.85 12.5 7.95 12.3 8.05 12.05 8.1 11.85 8.15 11.6 8.2 11.4 8.2 11.3 8.2 11.25 8.2 11.15 8.2 11.05 8.15 11 8.1 10.9 8.1 10.65 8 10.45 7.9 10.2 7.75 9.95 7.65 9.75 7.55 9.55 7.45 9.35 7.35 9.15 7.25 L9.15 7.2 Q9.15 7.2 9.15 7.2 9.2 7.15 9.25 7.15 9.3 7.1 9.35 7.05 9.5 6.9 9.65 6.75 9.85 6.55 10 6.4 10.15 6.25 10.3 6.1 10.45 5.95 10.6 5.8 10.7 5.7 10.8 5.6 10.9 5.5 10.95 5.4 11 5.4 11 5.4 M10.7 2.9 Q10.75 2.9 10.75 2.9 L10.75 2.95 Q10.85 3.1 11 3.25 11.15 3.4 11.3 3.6 11.8 4.15 12.35 4.65 12.95 5.2 13.55 5.65 14.35 6.3 15.25 6.85 16.15 7.4 17.05 7.9 18 8.35 18.95 8.8 19.45 9.05 20 9.25 20.55 9.5 21.1 9.7 21.15 9.7 21.15 9.7 21.15 9.75 21.2 9.75 21.15 9.75 21.15 9.75 L21.15 9.8 Q20.8 10.2 20.5 10.55 20.15 10.95 19.85 11.35 19.55 11.7 19.3 12.05 19 12.4 18.7 12.75 18.5 12.95 18.3 13.2 18.15 13.4 17.95 13.65 17.75 13.85 17.55 14.1 17.2 14.55 16.85 14.95 16.45 15.4 16.1 15.85 15.75 16.3 15.4 16.7 15.35 16.75 15.35 16.8 15.3 16.8 15.3 16.8 15.3 16.85 15.25 16.8 14.85 16.7 14.5 16.6 14.1 16.45 13.75 16.35 13.2 16.15 12.7 15.95 12.2 15.75 11.7 15.55 11.4 15.45 11.1 15.3 10.8 15.15 10.5 15 9.9 14.7 9.3 14.4 8.75 14.05 8.2 13.7 7.65 13.3 7.15 12.85 6.5 12.3 5.95 11.65 5.45 11.05 5.05 10.35 4.7 9.65 4.45 8.8 4.45 8.75 4.45 8.7 4.4 8.65 4.45 8.65 4.45 8.6 4.55 8.55 5.1 8.05 5.65 7.55 6.2 7.05 6.75 6.55 7.05 6.25 7.4 5.95 7.7 5.7 8 5.4 8.45 5 8.9 4.6 9.3 4.15 9.75 3.75 10.2 3.35 10.65 2.95 10.7 2.95 10.7 2.9 10.7 2.9 10.7 2.9 M16.45 9.6 Q16.5 9.65 16.55 9.7 16.55 9.75 16.6 9.75 16.7 9.8 16.75 9.85 16.8 9.85 16.85 9.9 16.85 9.9 16.85 9.9 16.85 9.95 16.85 9.95 16.85 10.1 16.85 10.3 16.8 10.45 16.8 10.65 16.75 10.8 16.7 11 16.7 11.1 16.65 11.2 16.6 11.25 16.6 11.35 16.55 11.35 16.55 11.35 16.55 11.35 16.55 11.35 16.45 11.3 16.4 11.25 16.3 11.2 16.25 11.15 16.1 11.1 16 11 15.85 10.95 15.75 10.85 15.65 10.8 15.55 10.75 15.45 10.65 15.35 10.6 15.3 10.6 15.25 10.6 15.25 10.55 15.2 10.55 15.25 10.5 15.35 10.4 15.4 10.35 15.45 10.25 15.7 10.05 15.95 9.9 16.2 9.75 16.45 9.6" fill="url(#gradient1)" stroke="none" />
    <path d="M20.6 14.7 Q20.6 14.7 20.65 14.7 20.75 14.75 20.9 14.8 21 14.9 21.1 14.95 L21.15 14.95 Q21.15 14.95 21.15 14.95 21.15 15 21.15 15 21.15 15 21.15 15 20.7 15.75 20.25 16.45 19.75 17.15 19.25 17.8 18.7 18.45 18.1 19.1 17.65 19.5 17.2 19.9 16.75 20.3 16.25 20.65 16.25 20.65 16.2 20.7 16.15 20.75 16.15 20.75 16.1 20.75 16.05 20.75 15.9 20.75 15.75 20.7 15.6 20.7 15.4 20.65 15.25 20.6 15.1 20.6 13.55 20.25 12.05 19.9 10.5 19.5 9.05 19 7.55 18.5 6.05 17.9 5.5 17.65 4.95 17.4 4.4 17.15 3.85 16.85 3.3 16.55 2.8 16.2 L2.8 16.15 Q2.8 16.15 2.75 16.15 2.75 16.15 2.75 16.1 L2.8 16.1 Q3.05 15.8 3.35 15.55 3.6 15.25 3.9 15 L3.9 14.95 Q3.9 14.95 3.95 14.95 3.95 14.95 3.95 14.9 4 14.95 4 14.95 4.45 15.35 4.9 15.65 5.4 16 5.9 16.3 6.85 16.9 7.9 17.4 8.95 17.9 10.05 18.3 11.15 18.7 12.25 19.05 13.05 19.3 13.95 19.5 14.8 19.75 15.65 19.9 15.75 19.95 15.9 20 16 20 16.1 20 16.25 20 16.35 20 16.45 19.95 16.55 19.8 16.6 19.75 16.6 19.7 16.6 19.65 16.65 19.6 16.65 19.55 16.7 19.55 17.2 18.85 17.75 18.2 18.3 17.55 18.85 16.85 19.25 16.35 19.7 15.8 20.15 15.3 20.55 14.75 20.6 14.7 20.6 14.7 20.6 14.7 20.6 14.7" fill="url(#gradient2)" stroke="none" />
  </g>
</svg>