<svg xmlns="http://www.w3.org/2000/svg" height="24" width="24">
  <defs>
    <linearGradient gradientTransform="matrix(0.01043701171875 0 0 0.01043701171875 11.95 8.75)" gradientUnits="userSpaceOnUse" id="gradient0" spreadMethod="pad" x1="-819.2" x2="819.2">
      <stop offset="0" stop-color="#B70000" />
      <stop offset="1" stop-color="#F46666" />
    </linearGradient>
    <linearGradient gradientTransform="matrix(0.009796142578125 0 0 0.009796142578125 11.85 12.2)" gradientUnits="userSpaceOnUse" id="gradient1" spreadMethod="pad" x1="-819.2" x2="819.2">
      <stop offset="0" stop-color="#B70000" />
      <stop offset="1" stop-color="#F46666" />
    </linearGradient>
  </defs>
  <g>
    <path d="M4.25 14.65 Q4.1 14.6 4 14.5 3.9 14.45 3.8 14.35 3.75 14.3 3.7 14.25 3.6 14.15 3.6 14.1 3.5 13.95 3.5 13.85 3.45 13.7 3.45 13.6 3.5 13.35 3.65 13.15 3.75 12.95 4 12.8 4.2 12.65 4.5 12.55 4.75 12.45 5.05 12.35 5.5 12.2 5.95 12.1 6.4 12 6.85 11.9 7.35 11.85 7.8 11.8 8.7 11.65 9.65 11.6 10.55 11.55 11.5 11.55 11.7 11.55 11.85 11.55 12.05 11.55 12.2 11.55 12.4 11.55 12.6 11.55 12.9 11.55 13.2 11.55 13.5 11.6 13.8 11.6 14.35 11.6 14.9 11.65 15.45 11.75 16 11.8 16.35 11.85 16.7 11.9 17.05 11.95 17.4 12 17.75 12.1 18.1 12.15 18.35 12.25 18.65 12.35 18.95 12.4 19.25 12.55 19.5 12.65 19.75 12.8 19.95 12.95 20.1 13.15 20.15 13.25 20.2 13.3 20.25 13.4 20.25 13.5 20.3 13.65 20.25 13.8 20.25 13.95 20.15 14.1 20.05 14.25 19.95 14.35 19.85 14.45 19.75 14.5 19.65 14.55 19.55 14.65 19.45 14.7 19.35 14.75 19.2 14.8 19.1 14.85 19.05 14.85 19 14.9 18.95 14.9 18.9 14.9 18.85 14.95 18.8 14.95 18.75 15 18.65 15 18.65 15 18.6 15.05 18.55 15.05 18.5 15.05 18.25 15.15 18 15.2 17.7 15.25 17.45 15.3 17.15 15.35 16.9 15.4 16.6 15.45 16.3 15.5 16 15.55 15.7 15.6 L15.6 15.6 15.55 15.6 Q15.25 15.65 14.9 15.65 14.55 15.7 14.2 15.7 14.1 15.75 14 15.75 13.9 15.75 13.8 15.75 13.55 15.75 13.3 15.75 13.05 15.8 12.8 15.8 12.7 15.8 12.55 15.8 12.45 15.8 12.35 15.8 12.15 15.8 11.9 15.8 11.7 15.8 11.5 15.8 11.2 15.8 10.9 15.8 10.65 15.8 10.35 15.75 10 15.75 9.6 15.75 9.25 15.7 8.85 15.7 8.45 15.65 8.1 15.6 8.05 15.6 8 15.6 7.95 15.6 7.9 15.6 7.65 15.55 7.35 15.5 7.05 15.45 6.8 15.4 6.6 15.35 6.4 15.35 6.2 15.3 6.05 15.25 5.85 15.2 5.65 15.15 5.6 15.15 5.5 15.15 5.45 15.1 5.4 15.1 5.35 15.1 5.35 15.1 L5.3 15.05 Q5.05 15 4.85 14.9 4.6 14.85 4.4 14.75 4.35 14.75 4.35 14.7 4.3 14.7 4.25 14.65 M16.95 8 Q16.5 8 16.05 8 15.55 8 15.1 8 L15.1 8.05 15.1 8.1 Q15.1 8.25 15.1 8.4 15.05 8.55 15.05 8.7 15.05 8.85 15.05 9 15.05 9.15 15.05 9.3 15.05 9.35 15.05 9.4 15.05 9.45 15.05 9.5 15.05 9.55 15.05 9.6 15 9.75 14.9 9.85 14.85 9.9 14.75 9.95 14.65 10 14.55 10 14.5 10 14.4 10 14.3 9.95 14.2 9.9 14.15 9.85 14.1 9.75 14.05 9.7 14.05 9.6 14 9.55 14 9.5 14 9.45 14 9.35 14.05 9.2 14.05 9.05 14.05 8.85 14.05 8.7 14.05 8.4 14.05 8.05 14.05 7.7 14.1 7.4 14.1 7.3 14.1 7.2 L14.1 7.05 Q14.15 6.8 14.2 6.6 14.2 6.35 14.3 6.15 14.35 5.9 14.4 5.7 14.5 5.45 14.6 5.25 14.7 5.05 14.8 4.85 14.9 4.7 15 4.55 15.05 4.4 15.15 4.25 15.2 4.2 15.2 4.15 15.25 4.15 15.3 4.1 15.35 4.05 15.45 4 15.55 4 15.6 4 15.6 4 15.65 4 15.65 4 15.7 4 15.7 4 15.7 4 L15.9 4 Q16.05 4 16.15 4 16.2 4 16.25 4 16.3 4 16.35 4 16.35 4 16.4 4 16.4 4 16.4 4 16.4 4 16.45 4 16.45 4 16.45 4 16.5 4 16.55 4 16.65 4 16.7 4.05 16.75 4.1 16.8 4.15 16.85 4.2 16.9 4.3 16.95 4.35 17 4.4 17 4.45 17.05 4.5 17.1 4.6 17.2 4.75 17.25 4.85 17.3 5 17.4 5.1 17.45 5.25 17.5 5.35 17.55 5.5 17.65 5.7 17.7 5.95 17.8 6.15 17.85 6.4 17.9 6.65 17.95 6.9 17.95 7.25 18 7.6 18 7.95 18 8.35 18 8.55 18 8.75 18 8.9 18 9.1 18.05 9.2 18.05 9.3 18.05 9.4 18.05 9.5 18.05 9.6 18 9.7 18 9.75 17.95 9.8 17.85 9.9 17.75 9.95 17.65 10 17.55 10 17.45 10 17.35 9.95 17.3 9.95 17.2 9.9 17.15 9.85 17.05 9.75 17 9.65 17 9.45 17 9.1 17 8.75 17 8.35 16.95 8 M16.9 6.95 Q16.9 6.8 16.85 6.65 16.8 6.5 16.8 6.35 16.7 6.1 16.6 5.85 16.5 5.6 16.35 5.35 16.3 5.3 16.25 5.2 16.2 5.1 16.15 5 L16.05 5 15.9 5 Q15.85 5.05 15.85 5.1 15.8 5.15 15.75 5.2 15.65 5.45 15.55 5.7 15.4 5.95 15.35 6.2 15.25 6.4 15.25 6.55 15.2 6.75 15.15 6.95 15.6 6.95 16.05 6.95 16.45 6.95 16.9 6.95 M10.3 2.1 Q10.3 2.1 10.3 2.1 L12.45 2.1 Q12.55 2.1 12.65 2.1 12.75 2.1 12.85 2.1 12.95 2.1 13.05 2.15 13.1 2.15 13.15 2.25 13.25 2.3 13.25 2.4 13.3 2.5 13.3 2.6 13.3 2.8 13.2 2.9 13.15 3 13.05 3.05 12.95 3.1 12.85 3.1 L12.05 3.1 12 3.1 Q12 3.1 12 3.1 12 3.1 12 3.15 L12 9.05 Q12 9.05 12 9.05 12 9.1 12 9.1 L12.05 9.1 12.4 9.1 Q12.5 9.05 12.6 9.05 12.65 9.05 12.75 9.05 12.85 9.1 12.95 9.1 13 9.1 13.1 9.2 13.15 9.25 13.2 9.35 13.3 9.45 13.3 9.6 13.25 9.8 13.2 9.9 13.1 10 13 10.05 12.85 10.1 12.8 10.1 L10.45 10.1 Q10.4 10.1 10.3 10.1 10.2 10.1 10.15 10.1 10.05 10.1 10 10.1 9.9 10.05 9.85 10 9.75 9.95 9.7 9.85 9.6 9.75 9.6 9.55 9.65 9.4 9.7 9.25 9.8 9.15 9.9 9.1 10.05 9.05 10.1 9.1 L10.95 9.1 Q11 9.1 11 9.05 11 9.05 11 9.05 L11 3.15 Q11 3.1 11 3.1 11 3.1 10.95 3.1 L10.55 3.1 Q10.5 3.1 10.4 3.1 10.35 3.1 10.25 3.1 10.15 3.1 10.1 3.1 10 3.05 9.95 2.95 9.85 2.9 9.8 2.8 9.75 2.65 9.8 2.5 9.85 2.35 9.9 2.25 10 2.15 10.1 2.15 10.2 2.1 10.25 2.1 L10.3 2.1 Q10.3 2.1 10.3 2.1" fill="#BBBBBB" stroke="none" />
    <path d="M4.65 16.1 Q4.8 16.2 4.95 16.25 5.1 16.3 5.25 16.35 5.4 16.4 5.55 16.4 5.75 16.5 5.95 16.5 6.2 16.55 6.4 16.6 L6.5 16.65 Q6.5 16.65 6.55 16.65 7.25 16.75 8 16.85 8.75 16.9 9.5 16.95 L9.55 16.95 Q9.6 16.95 9.65 16.95 10.85 17 12 17 13.2 17.05 14.4 16.95 14.85 16.95 15.3 16.9 15.75 16.85 16.2 16.8 16.35 16.8 16.45 16.8 16.55 16.75 16.7 16.75 16.85 16.75 17.05 16.7 17.2 16.7 17.4 16.65 17.45 16.65 17.45 16.65 L17.5 16.65 Q17.85 16.55 18.2 16.5 18.55 16.4 18.85 16.3 19 16.25 19.15 16.2 19.3 16.15 19.45 16.1 19.55 16.05 19.65 15.95 19.75 15.9 19.8 15.85 19.85 15.85 19.85 15.8 19.85 15.8 19.85 15.8 19.95 15.75 20 15.65 20.05 15.6 20.1 15.5 20.2 15.6 20.25 15.7 20.35 15.8 20.4 15.95 20.45 16 20.5 16.1 20.5 16.2 20.55 16.3 20.55 16.4 20.55 16.5 20.5 16.65 20.45 16.8 20.4 17 20.3 17.1 20.25 17.15 20.2 17.15 20.15 17.2 20.1 17.25 20.05 17.3 20 17.3 19.9 17.35 19.75 17.45 19.65 17.5 19.5 17.55 L19.5 17.6 19.45 17.6 Q19.35 17.65 19.25 17.7 19.15 17.75 19 17.8 18.9 17.85 18.75 17.9 18.6 17.95 18.5 18 18.3 18.05 18.15 18.1 17.95 18.15 17.75 18.2 16.45 18.55 15.15 18.7 13.8 18.9 12.45 18.95 11.1 19 9.7 18.85 8.95 18.8 8.15 18.65 7.4 18.55 6.65 18.4 6.3 18.3 5.95 18.2 5.65 18.1 5.3 18.05 5.15 18 5.05 17.95 4.9 17.9 4.8 17.85 4.7 17.8 4.55 17.75 4.45 17.7 4.35 17.65 4.35 17.65 4.35 17.65 4.15 17.5 4 17.35 3.85 17.25 3.75 17.05 3.6 16.8 3.55 16.55 3.55 16.3 3.65 16.05 3.75 15.8 3.95 15.55 4 15.6 4 15.65 4.05 15.7 4.1 15.75 4.2 15.85 4.35 15.95 4.45 16.05 4.65 16.1" fill="url(#gradient0)" stroke="none" />
    <path d="M4.7 19 Q5 19.1 5.3 19.2 5.6 19.25 5.95 19.35 6.25 19.45 6.55 19.5 7.15 19.65 7.75 19.75 8.4 19.85 9 19.95 9.3 20 9.6 20 9.85 20.05 10.15 20.05 10.25 20.05 10.4 20.1 10.5 20.1 10.65 20.1 10.75 20.1 10.85 20.1 L11.05 20.1 Q11.1 20.1 11.2 20.1 11.3 20.1 11.4 20.1 11.75 20.15 12.1 20.1 12.4 20.1 12.75 20.1 12.9 20.1 13.05 20.1 13.2 20.1 13.35 20.1 13.4 20.05 13.45 20.05 L13.55 20.05 13.7 20.05 13.85 20.05 Q14.1 20 14.4 20 14.7 19.95 14.95 19.9 15.1 19.9 15.2 19.85 15.35 19.85 15.45 19.85 16.05 19.7 16.65 19.6 17.3 19.45 17.9 19.3 18.15 19.2 18.45 19.1 18.75 19 19.05 18.9 19.15 18.85 19.25 18.8 19.35 18.75 19.45 18.75 19.55 18.7 19.65 18.65 19.75 18.6 19.85 18.55 19.9 18.7 19.9 18.85 19.9 19 19.9 19.15 19.9 19.35 19.8 19.5 19.75 19.7 19.6 19.85 19.5 20 19.35 20.15 19.35 20.15 19.3 20.15 19.25 20.25 19.15 20.3 19.05 20.35 18.95 20.4 18.65 20.6 18.3 20.75 18 20.9 17.65 21 L17.6 21 Q17.45 21.05 17.3 21.1 17.15 21.15 17 21.2 16.8 21.25 16.65 21.3 16.45 21.35 16.3 21.4 16.15 21.45 16 21.5 15.85 21.5 15.7 21.55 15.3 21.65 14.9 21.7 14.5 21.8 14.1 21.85 13.8 21.85 13.5 21.9 13.2 21.9 12.85 21.95 12.6 21.95 12.35 21.95 12.05 21.95 11.8 21.95 11.5 21.95 11.25 21.95 10.8 21.95 10.4 21.9 9.95 21.85 9.5 21.8 9.3 21.8 9.1 21.75 8.9 21.75 8.7 21.7 8.5 21.65 8.35 21.6 8.25 21.6 8.2 21.6 L8.05 21.55 Q7.85 21.5 7.65 21.5 7.45 21.45 7.25 21.4 7.1 21.35 6.95 21.3 6.8 21.25 6.65 21.2 6.65 21.2 6.65 21.2 6.65 21.2 6.65 21.2 6.45 21.15 6.3 21.1 6.15 21.05 5.95 21 5.75 20.95 5.55 20.85 5.35 20.75 5.15 20.65 4.95 20.5 4.75 20.4 4.7 20.35 4.65 20.3 4.65 20.3 4.6 20.25 4.55 20.25 4.5 20.2 4.35 20.1 4.2 19.95 4.1 19.8 4 19.6 3.95 19.5 3.9 19.4 3.9 19.25 3.85 19.15 3.85 19 3.85 18.85 3.9 18.75 3.9 18.6 L4 18.65 Q4 18.65 4.05 18.7 4.1 18.7 4.2 18.75 4.25 18.8 4.3 18.8 4.4 18.85 4.5 18.9 4.6 18.95 4.7 19" fill="url(#gradient1)" stroke="none" />
  </g>
</svg>