<svg xmlns="http://www.w3.org/2000/svg" height="16" width="16">
  <defs />
  <g>
    <path d="M4 9.05 L4 11.7 Q4 11.9 4 12.1 4 12.3 4 12.5 4 12.6 3.95 12.7 3.95 12.8 3.9 12.85 3.85 12.9 3.85 12.9 3.8 12.95 3.75 12.95 3.7 13 3.65 13 3.6 13 3.5 13 3.4 13.05 3.3 13 3.2 12.95 3.15 12.9 3.1 12.85 3.1 12.85 3.05 12.8 3 12.7 3 12.6 3 12.5 L3 3.5 Q3 3.45 3 3.4 3 3.3 3 3.3 3.05 3.25 3.05 3.2 3.1 3.15 3.15 3.1 3.2 3.05 3.3 3 3.35 2.95 3.45 2.95 3.45 2.95 3.45 2.95 3.45 2.95 3.5 2.95 3.5 2.95 3.55 2.95 3.6 2.95 3.6 2.95 3.7 2.95 3.8 3 3.85 3 3.95 3 4 3 4.1 3 4.2 3.05 4.25 3.05 4.45 3.1 4.6 3.1 4.8 3.15 4.95 3.2 5.25 3.25 5.55 3.35 5.9 3.45 6.2 3.55 6.45 3.7 6.75 3.85 7.05 4.05 7.25 4.3 7.5 4.5 7.65 4.8 7.8 5.05 7.9 5.4 8 5.7 8 6.05 8 6.35 7.9 6.7 7.8 7 7.6 7.25 7.45 7.5 7.25 7.7 7 7.95 6.75 8.1 6.5 8.3 6.25 8.4 6.3 8.55 6.35 8.65 L6.45 8.9 Q6.6 9.2 6.7 9.45 6.8 9.7 6.95 10 7.1 10.3 7.2 10.6 7.35 10.95 7.5 11.25 7.6 11.45 7.7 11.65 7.75 11.85 7.85 12.05 7.9 12.1 7.9 12.2 7.95 12.3 8 12.35 8.05 12.5 8 12.65 7.95 12.75 7.9 12.85 7.8 12.9 7.7 12.95 7.6 13 7.5 13 7.35 13 7.25 12.95 7.1 12.9 7.05 12.7 7 12.65 6.95 12.55 6.9 12.45 6.85 12.35 6.75 12.1 6.65 11.9 6.55 11.7 6.5 11.45 6.4 11.3 6.35 11.15 6.25 11 6.2 10.85 6.15 10.7 6.05 10.55 L5.95 10.3 Q5.8 9.9 5.6 9.55 5.45 9.15 5.3 8.8 5.15 8.85 4.95 8.85 4.8 8.9 4.65 8.95 4.55 8.95 4.45 8.95 4.35 9 4.25 9 4.2 9 4.15 9 4.05 9 4 9.05 M4 8 Q4.15 8 4.3 7.95 4.45 7.95 4.6 7.9 4.85 7.85 5.05 7.8 5.3 7.7 5.55 7.6 5.65 7.55 5.8 7.5 5.9 7.45 6 7.4 6.15 7.3 6.3 7.2 6.45 7.05 6.55 6.95 6.7 6.8 6.8 6.65 6.9 6.45 6.95 6.3 7 6.05 6.95 5.8 6.9 5.55 6.8 5.35 6.65 5.1 6.5 4.95 6.3 4.8 6.05 4.65 5.85 4.55 5.6 4.45 5.35 4.35 5.15 4.3 5.05 4.25 4.95 4.25 4.85 4.2 4.8 4.2 4.65 4.15 4.5 4.1 4.35 4.1 4.2 4.05 4.15 4.05 4.1 4.05 4.05 4.05 4 4.05 L4 8 M10.45 12 Q10.5 12 10.5 12 L11 12 11 9 10.5 9 Q10.4 9 10.3 8.95 10.2 8.95 10.15 8.85 10.05 8.8 10 8.7 10 8.6 10 8.5 10 8.35 10 8.3 10.05 8.2 10.1 8.15 10.15 8.1 10.25 8.05 10.35 8 10.45 8 L10.5 8 Q10.5 8 10.5 8 10.5 8 10.5 8 10.5 8 10.5 8 10.5 8 10.5 8 L12.5 8 Q12.6 8 12.65 8 12.75 8 12.8 8.05 12.85 8.1 12.9 8.15 12.95 8.25 13 8.35 13.05 8.45 13 8.55 13 8.65 12.95 8.75 12.95 8.8 12.85 8.85 12.8 8.9 12.75 8.95 12.65 9 12.5 9 L12 9 12 12 12.5 12 Q12.6 12 12.7 12 12.75 12 12.8 12.05 12.85 12.1 12.9 12.15 13 12.2 13 12.3 13.05 12.35 13.05 12.45 13.05 12.55 13.05 12.6 13 12.7 12.95 12.8 12.9 12.9 12.8 12.95 12.7 13 12.55 13 L10.5 13 Q10.35 13 10.3 12.95 10.2 12.95 10.1 12.9 10.05 12.8 10 12.7 9.95 12.6 9.95 12.45 9.95 12.35 10 12.25 10.05 12.2 10.1 12.15 10.15 12.05 10.25 12.05 10.35 12 10.45 12" fill="#952494" stroke="none" />
  </g>
</svg>