<svg xmlns="http://www.w3.org/2000/svg" height="24" width="24">
  <defs />
  <g>
    <path d="M9.25 13.4 Q8.95 13.5 8.6 13.6 8.3 13.65 8 13.75 7.85 13.75 7.7 13.8 7.55 13.85 7.4 13.85 7.1 13.9 6.75 13.95 6.4 13.95 6.05 14 6.05 14 6.05 14 6.05 14 6.05 14 L6.05 19.45 Q6.05 19.6 6 19.7 5.95 19.8 5.85 19.85 5.8 19.95 5.7 19.95 5.65 20 5.5 20 5.4 20 5.3 19.95 5.15 19.9 5.1 19.8 5 19.65 5 19.45 L5 5.3 Q5 5.15 5.05 5.05 5.1 4.95 5.2 4.9 5.25 4.8 5.35 4.8 5.4 4.8 5.4 4.8 5.45 4.8 5.5 4.75 5.55 4.75 5.6 4.7 5.65 4.7 5.7 4.7 5.75 4.7 5.75 4.7 5.75 4.7 5.75 4.7 L5.8 4.7 Q6.05 4.75 6.3 4.75 6.6 4.8 6.85 4.85 7.05 4.85 7.25 4.9 7.45 4.9 7.6 4.95 7.8 5 8 5.05 8.2 5.1 8.4 5.15 8.6 5.2 8.8 5.25 9 5.3 9.2 5.35 L9.55 5.45 Q9.7 5.5 9.9 5.6 10.05 5.65 10.2 5.75 10.4 5.8 10.55 5.9 10.7 5.95 10.85 6.05 11 6.15 11.2 6.25 11.45 6.45 11.7 6.65 11.95 6.85 12.15 7.15 12.4 7.4 12.55 7.75 12.75 8.1 12.85 8.55 12.95 9.15 12.9 9.65 12.85 10.2 12.7 10.65 12.5 11.1 12.2 11.45 11.9 11.8 11.6 12.1 11.25 12.4 10.9 12.6 10.55 12.8 10.2 13 10.2 13.05 10.25 13.1 10.3 13.2 10.3 13.25 10.35 13.35 10.4 13.45 10.4 13.5 10.45 13.6 10.55 13.8 10.65 14 10.75 14.2 10.8 14.4 10.95 14.7 11.05 14.95 11.15 15.2 11.3 15.5 11.35 15.65 11.45 15.85 11.55 16.05 11.6 16.25 11.65 16.35 11.7 16.45 11.75 16.55 11.8 16.65 11.9 16.9 12 17.1 12.1 17.35 12.2 17.55 12.3 17.8 12.4 18.1 12.55 18.35 12.65 18.6 12.7 18.8 12.8 18.95 12.85 19.15 12.95 19.3 13 19.4 13 19.5 13 19.6 13 19.7 12.95 19.8 12.9 19.85 12.75 20 12.6 20.05 12.45 20.1 12.3 20 12.1 19.95 12.05 19.75 12 19.65 11.95 19.55 11.9 19.45 11.85 19.35 11.8 19.2 11.75 19.1 11.65 18.95 11.6 18.85 11.45 18.45 11.3 18.1 11.15 17.75 11 17.4 10.85 17.1 10.75 16.85 10.65 16.6 10.5 16.3 10.5 16.2 10.45 16.15 10.4 16.05 10.35 15.95 10.3 15.8 10.2 15.6 10.15 15.45 10.05 15.3 9.95 15 9.85 14.75 9.7 14.45 9.6 14.2 9.5 14 9.45 13.8 9.35 13.6 9.25 13.4 M15.5 11.95 Q15.5 11.95 15.5 11.95 15.5 11.95 15.5 11.95 15.55 12 15.55 12 15.65 12 15.75 12.05 15.9 12.1 15.95 12.2 16 12.35 16 12.5 L16 15.5 Q16 15.5 16 15.5 16 15.5 16.05 15.5 16.45 15.1 16.85 14.7 17.3 14.3 17.7 13.9 17.85 13.75 18 13.6 18.15 13.45 18.35 13.3 18.55 13.1 18.7 12.9 18.9 12.7 19.1 12.5 19.2 12.45 19.25 12.4 19.3 12.35 19.35 12.3 19.4 12.25 19.45 12.2 19.5 12.15 19.55 12.15 19.65 12.15 19.7 12.15 19.8 12.1 19.9 12.15 19.95 12.2 20.05 12.25 20.15 12.35 20.2 12.5 20.25 12.6 20.25 12.75 20.2 12.9 20.1 13 20.05 13.05 19.95 13.15 19.9 13.2 19.85 13.25 19.55 13.55 19.25 13.8 18.95 14.1 18.7 14.35 18.3 14.75 17.9 15.15 17.5 15.55 17.1 15.9 L17.05 15.95 Q17.05 15.95 17.05 15.95 17.05 15.95 17.05 15.95 17.05 15.95 17.05 15.95 17.05 15.95 17.1 15.95 17.35 16.3 17.65 16.6 17.95 16.95 18.2 17.25 18.65 17.75 19.05 18.2 19.5 18.7 19.9 19.15 19.95 19.25 20 19.3 20.05 19.4 20.05 19.5 20.05 19.6 20.05 19.7 19.95 19.9 19.8 19.95 19.65 20.05 19.5 20.05 19.3 20 19.2 19.9 19.15 19.85 19.05 19.75 19 19.7 18.95 19.65 18.85 19.55 18.75 19.45 18.65 19.35 18.6 19.2 18.1 18.65 17.55 18.1 17.05 17.5 16.55 16.95 L16.45 16.8 Q16.4 16.75 16.35 16.7 16.35 16.7 16.35 16.65 16.3 16.65 16.3 16.65 16.25 16.75 16.15 16.75 16.1 16.8 16.05 16.85 16 16.85 16 16.85 16 16.85 16 16.85 L16 18.8 Q16 18.95 16 19.15 16 19.35 16 19.5 16 19.7 15.9 19.8 15.85 19.9 15.75 19.95 15.6 20 15.5 20 15.4 20 15.25 19.95 15.15 19.9 15.05 19.8 15 19.65 15 19.45 L15 12.5 Q15 12.3 15.05 12.2 15.15 12.1 15.25 12.05 15.35 12 15.45 11.95 15.5 11.95 15.5 11.95 M6.05 5.75 Q6.05 5.75 6.05 5.8 L6.05 12.9 Q6.05 12.95 6.05 12.95 6.05 12.95 6.05 12.95 6.35 12.95 6.6 12.95 6.85 12.9 7.1 12.85 7.5 12.8 7.85 12.7 8.2 12.65 8.55 12.55 8.8 12.45 9.05 12.35 9.3 12.25 9.55 12.15 9.85 12 10.2 11.85 10.5 11.65 10.85 11.4 11.15 11.15 11.4 10.8 11.6 10.5 11.75 10.2 11.9 9.85 11.9 9.45 11.95 9.05 11.8 8.65 11.7 8.25 11.5 8 11.3 7.7 11.1 7.5 10.85 7.3 10.65 7.15 10.4 6.95 10.15 6.85 10 6.75 9.8 6.65 9.6 6.6 9.45 6.5 9.25 6.45 9.05 6.35 8.9 6.3 8.7 6.25 8.5 6.2 8.35 6.15 8.15 6.1 7.95 6.05 7.75 6.05 7.55 6 7.2 5.9 6.85 5.85 6.45 5.8 6.1 5.75 6.1 5.75 6.05 5.75 6.05 5.75 6.05 5.75 6.05 5.75 6.05 5.75" fill="#3FD11A" stroke="none" />
  </g>
</svg>