<svg xmlns="http://www.w3.org/2000/svg" height="16" width="16">
  <defs />
  <g>
    <path d="M4 9.05 L4 11.7 Q4 11.9 4 12.1 4 12.3 4 12.5 4 12.6 3.95 12.7 3.95 12.8 3.9 12.85 3.85 12.9 3.85 12.9 3.8 12.95 3.75 12.95 3.7 13 3.65 13 3.6 13 3.5 13 3.4 13.05 3.3 13 3.2 12.95 3.15 12.9 3.1 12.85 3.1 12.85 3.05 12.8 3 12.7 3 12.6 3 12.5 L3 3.5 Q3 3.45 3 3.4 3 3.3 3 3.3 3.05 3.25 3.05 3.2 3.1 3.15 3.15 3.1 3.2 3.05 3.3 3 3.35 2.95 3.45 2.95 3.45 2.95 3.45 2.95 3.45 2.95 3.5 2.95 3.5 2.95 3.55 2.95 3.6 2.95 3.6 2.95 3.7 2.95 3.8 3 3.85 3 3.95 3 4 3 4.1 3 4.2 3.05 4.25 3.05 4.45 3.1 4.6 3.1 4.8 3.15 4.95 3.2 5.25 3.25 5.55 3.35 5.9 3.45 6.2 3.55 6.45 3.7 6.75 3.85 7.05 4.05 7.25 4.3 7.5 4.5 7.65 4.8 7.8 5.05 7.9 5.4 8 5.7 8 6.05 8 6.35 7.9 6.7 7.8 7 7.6 7.25 7.45 7.5 7.25 7.7 7 7.95 6.75 8.1 6.5 8.3 6.25 8.4 6.3 8.55 6.35 8.65 L6.45 8.9 Q6.6 9.2 6.7 9.45 6.8 9.7 6.95 10 7.1 10.3 7.2 10.6 7.35 10.95 7.5 11.25 7.6 11.45 7.7 11.65 7.75 11.85 7.85 12.05 7.9 12.1 7.9 12.2 7.95 12.3 8 12.35 8.05 12.5 8 12.65 7.95 12.75 7.9 12.85 7.8 12.9 7.7 12.95 7.6 13 7.5 13 7.35 13 7.25 12.95 7.1 12.9 7.05 12.7 7 12.65 6.95 12.55 6.9 12.45 6.85 12.35 6.75 12.1 6.65 11.9 6.55 11.7 6.5 11.45 6.4 11.3 6.35 11.15 6.25 11 6.2 10.85 6.15 10.7 6.05 10.55 L5.95 10.3 Q5.8 9.9 5.6 9.55 5.45 9.15 5.3 8.8 5.15 8.85 4.95 8.85 4.8 8.9 4.65 8.95 4.55 8.95 4.45 8.95 4.35 9 4.25 9 4.2 9 4.15 9 4.05 9 4 9.05 M4 8 Q4.15 8 4.3 7.95 4.45 7.95 4.6 7.9 4.85 7.85 5.05 7.8 5.3 7.7 5.55 7.6 5.65 7.55 5.8 7.5 5.9 7.45 6 7.4 6.15 7.3 6.3 7.2 6.45 7.05 6.55 6.95 6.7 6.8 6.8 6.65 6.9 6.45 6.95 6.3 7 6.05 6.95 5.8 6.9 5.55 6.8 5.35 6.65 5.1 6.5 4.95 6.3 4.8 6.05 4.65 5.85 4.55 5.6 4.45 5.35 4.35 5.15 4.3 5.05 4.25 4.95 4.25 4.85 4.2 4.8 4.2 4.65 4.15 4.5 4.1 4.35 4.1 4.2 4.05 4.15 4.05 4.1 4.05 4.05 4.05 4 4.05 L4 8 M9 12 L9 11.5 Q9 11.05 9 10.5 9 9.95 9 9.55 L9 9.05 Q9 8.8 9.1 8.6 9.2 8.45 9.35 8.3 9.55 8.15 9.75 8.1 9.8 8.05 9.9 8.05 10 8.05 10.05 8.05 10.25 8 10.4 8 10.6 8 10.75 8 L10.8 8 Q10.8 8 10.8 8 10.95 8 11.1 8 11.25 8 11.4 8 11.55 8 11.7 8 11.85 8.05 11.95 8.05 12.1 8.1 12.25 8.15 12.4 8.2 12.5 8.35 12.65 8.45 12.7 8.65 12.75 8.8 12.8 9 12.85 9.2 12.8 9.4 12.8 9.55 12.75 9.7 12.7 9.9 12.6 10.05 12.6 10.1 12.55 10.15 12.5 10.2 12.45 10.25 12.4 10.3 12.4 10.35 L12.35 10.35 Q12.35 10.4 12.35 10.4 12.35 10.4 12.35 10.4 12.5 10.45 12.65 10.55 12.75 10.7 12.85 10.8 12.95 10.95 13.05 11.2 13.1 11.4 13.1 11.6 13.1 11.8 13 12 12.95 12.25 12.75 12.45 12.6 12.6 12.4 12.75 12.15 12.85 11.9 12.9 11.7 12.95 11.45 13 11.3 13 11.1 13 10.9 13 10.75 13 10.55 13 10.35 13 10.25 13 10.15 13 10.1 13 10 13 9.9 13 9.8 13 9.7 12.95 9.65 12.95 9.55 12.9 9.5 12.9 9.45 12.85 9.35 12.8 9.25 12.7 9.15 12.55 9.1 12.45 9.05 12.3 9 12.15 9 12 M10 10.85 Q10 10.85 10 10.85 10 11 10 11.1 10.05 11.25 10.05 11.35 10 11.5 10 11.6 10 11.7 10 11.85 10 11.9 10 11.95 L10.05 11.95 10.05 12 Q10.1 12 10.1 12 L10.15 12 Q10.3 11.95 10.45 12 10.6 12 10.7 12 10.85 12 11 12 11.15 12 11.3 11.95 11.45 11.95 11.6 11.95 11.75 11.9 11.85 11.85 11.95 11.8 12 11.75 12.05 11.7 12.05 11.65 12.05 11.6 12.05 11.5 12.05 11.45 12 11.4 12 11.4 12 11.35 11.95 11.35 11.95 11.3 11.85 11.25 11.75 11.2 11.65 11.15 11.55 11.15 11.45 11.1 11.4 11 11.35 11 11.3 10.95 11.25 10.95 11.2 10.9 11.2 10.9 11.2 10.9 11.2 10.9 11.15 10.9 10.95 10.9 10.7 10.9 10.45 10.9 10.25 10.9 10.15 10.9 10.1 10.85 10.05 10.85 10 10.85 10 10.85 10 10.85 M10.8 9 Q10.8 9 10.8 9 10.65 9 10.5 9.05 10.3 9.05 10.15 9.05 10.15 9.05 10.1 9.05 10.1 9.05 10.05 9.05 10.05 9.05 10.05 9.1 10.05 9.1 10.05 9.1 10.05 9.2 10.05 9.3 10.05 9.4 10.05 9.5 10.05 9.6 10.05 9.7 10.05 9.75 10.05 9.75 10.05 9.8 10.05 9.8 10.05 9.8 10.05 9.8 10.05 9.85 10.05 9.85 10.1 9.85 10.2 9.85 10.3 9.85 10.35 9.85 10.6 9.9 10.85 9.9 11.05 9.9 11.3 9.85 11.35 9.85 11.4 9.8 11.45 9.8 11.5 9.75 11.55 9.7 11.6 9.65 11.7 9.6 11.75 9.5 11.8 9.4 11.8 9.3 11.8 9.2 11.75 9.1 11.75 9.05 11.75 9.05 11.75 9.05 11.75 9.05 11.7 9.05 11.7 9.05 11.55 9.05 11.4 9.05 11.25 9 11.15 9 11 9 10.85 9 L10.8 9" fill="#DBBF2C" stroke="none" />
  </g>
</svg>